<svg xmlns="http://www.w3.org/2000/svg" fill="#444444" height="45.45" width="35.93"><path d="M17.96 0L0 1.88v32.88l17.97 10.7 17.9-10.66.06-.03V1.88L18.16.02zM2.56 4.2l15.4-1.62 15.4 1.62v11.97L17.99 7.1v-.14l-.11.07-.12-.08v.15l-15.2 9.05zm.15 13.96l15.16-9.11L33.23 18l-5.97 3.52-9.46-5.63-.02 1.89 7.87 4.68-1.14.68-6.7-4-.03 1.9 5.1 3.03-1.04.7-4.04-2.39-.02 1.89 2.47 1.45-2.4 1.44zm26.11 11.4l-.01-6.9 4.55-2.72V33.3l-15.4 9.17-15.4-9.17V20.17l15.22 9.05.02 1.4-10.59-6.3-.02 1.88 10.64 6.4.03 1.43L7.23 27.7l-.02 1.88 10.7 6.43.06.04z"/></svg>