<svg xmlns="http://www.w3.org/2000/svg" height="21.35" width="21.33"><defs><clipPath id="a" clipPathUnits="userSpaceOnUse"><path d="M0 16h16V0H0z"/></clipPath></defs><g clip-path="url(#a)" transform="matrix(1.33333 0 0 -1.33333 0 21.35)"><path d="M11.83 16H4.17A4.19 4.19 0 010 11.84V4.18C0 1.88 1.88 0 4.17 0h7.66C14.13 0 16 1.88 16 4.18v7.65c0 2.3-1.88 4.18-4.17 4.18m0-1.04c1.72 0 3.13-1.41 3.13-3.14V4.18c0-1.73-1.4-3.14-3.13-3.14H4.17a3.14 3.14 0 00-3.13 3.14v7.65c0 1.73 1.4 3.14 3.13 3.14h7.66" fill="#231f20"/><path d="M8 12.13a4.13 4.13 0 110-8.26 4.13 4.13 0 010 8.26m0-1.05a3.09 3.09 0 100-6.17 3.09 3.09 0 000 6.17M12.27 13.2a.93.93 0 100-1.87.93.93 0 000 1.87" fill="#231f20"/></g></svg>