<svg xmlns="http://www.w3.org/2000/svg" height="251.15" width="605.41"><defs><clipPath id="a" clipPathUnits="userSpaceOnUse"><path d="M0 188.36h454.05V0H0z"/></clipPath></defs><g clip-path="url(#a)" transform="matrix(1.33333 0 0 -1.33333 0 251.15)"><path d="M417 168.8a52.88 52.88 0 0015.4 15.58c3.36 2.24 5.5 2.23 7.3-1.86 2.85-6.54 5.1-13.06 3.05-20.28-.74-2.62-.2-4.85 1.42-7.03 1.9-2.53 3.58-5.22 5.33-7.86 4.28-6.45 6.02-13.25 3.12-20.83a18.27 18.27 0 01-.68-10.31c.65-3.27.53-6.64 0-9.96-.87-5.43-3.68-9.23-9.16-10.67-4.3-1.14-8.05-3.1-10.86-6.67a4.43 4.43 0 00-2.9-1.8c-4-.55-14.15 8.47-14.14 12.55 0 .66.04 1.33.05 2 .23 12.04-.5 13.21-11.55 18.04-2.33 1.02-4.54 2.16-6.13 4.17-2.2 2.76-4.86 2.5-7.65 1.33-2.83-1.19-4.7-3.03-4.32-6.48.88-8.12 1.22-16.26 1.18-24.43 0-.95.26-2.07.8-2.83 10.48-15.11 14.43-32.89 19.66-50 4-13.05 11.5-20.15 25.01-21.1 2.15-.16 4.28-.66 6.4-1.05 6.05-1.13 9.67-4.94 11.45-10.62C452 1.62 450.9.11 443.53.06c-7.33-.05-14.66.04-22-.06-2.96-.04-5.48.54-7.7 2.73-3.27 3.22-7.54 4.86-11.65 6.68-4.5 2-8.69 4.51-11.37 8.68-3.75 5.83-8.85 10.35-13.63 15.21-9.57 9.75-19.49 19.15-28.54 29.4-6.52 7.39-10.8 15.59-10.7 25.62.02 3.16-.8 4.47-4.03 2.88a8.32 8.32 0 00-3.34-1c-9.53-.15-14.2-5.84-17.57-14.06-2.97-7.2-7.2-13.89-10.77-20.86-2.38-4.63-3.92-9.53-3.91-14.83 0-7.91 1.87-10.75 9.33-13.42 4.62-1.65 9.07-3.38 11.6-8.02 2.86-5.24 2.02-6.86-3.85-6.92-7.66-.07-15.33.04-23-.06-2.97-.04-4.98 1-6.44 3.7-1.89 3.52-4.15 6.83-6.25 10.23-3.48 5.65-4.89 11.42-2.53 18.07 2.04 5.77 1.12 11.96.27 17.84-1.27 8.76.11 16.58 5.84 23.43 1.87 2.23 2.11 3.46-1.33 4.11-14.01 2.63-27.25 7.57-40.06 13.72l-.46.2c-10.82 4.15-12.9 3.22-15.94-7.67-2.64-9.46-5.38-18.92-7.44-28.5-2.28-10.61.38-20.85 3.79-30.87 1.32-3.88 5.28-3.72 8.32-4.61 6.64-1.95 12.37-4.76 15.27-11.64 2.26-5.35 1.97-6.07-3.69-6.12-5.83-.05-11.68.29-17.49-.1-5.52-.37-9.64 1.74-14.14 4.75-16.3 10.89-20.93 27.13-22.23 45.22-.82 11.23-6.74 20-13.92 28.13-1.4 1.58-2.67 2.23-4.7.94-7.1-4.5-15.08-6.99-22.87-9.94-16.37-6.2-30.57-15.45-41.31-29.53-3.9-5.12-6.6-10.8-7.55-17.2-.9-6.06.79-8.6 6.63-10.33 6.47-1.9 9.04-5.04 9.77-11.57.31-2.76-.69-4.18-3.47-4.19-9.16 0-18.33.03-27.49.06-2.03 0-3.33 1.2-4.54 2.7-4.37 5.39-6.43 11.64-6.6 18.47-.31 11.7 1.06 23.27 3.13 34.76 1.27 7.1 4.61 12.91 11.36 16.1 20.01 9.43 30.47 27.12 39.91 45.77 1.9 3.76.22 4.33-3.04 4.04-9.8-.88-18.19-5.22-26.03-10.73-10.1-7.1-19.2-15.44-28.22-23.86-9.87-9.22-21.08-15.63-34.92-16.6C10.66 79.17-1.09 92.67.08 115.12c.4 7.65 2.97 14.73 8.22 20.5 4.05 4.45 8.97 6.89 15.2 5.08 5.17-1.5 6.5-4.1 4.37-8.94-.87-1.96-2.21-3.71-3.25-5.61-1.19-2.19-2.54-4.34-3.37-6.66-3.56-10.03 1.24-17.17 11.84-18.07 11.25-.95 20.4 3.74 28.87 10.38 10.3 8.07 19.28 17.58 27.28 27.76 12.63 16.06 28.95 24.63 48.8 27.21 7.7 1 14.63 4.44 22 6.5 14.04 3.95 28.27 6.3 42.87 5.95a47.9 47.9 0 0119.82 3.6c16.51 6.74 33.78 6.7 51.1 3.22 13.55-2.72 26.95-6.12 40.39-9.3 7.6-1.8 15.94-1.15 23.7.54 15 3.26 30 6.3 45.38 6.59 10.06.18 19.91-1.46 29.18-5.71 6.47-2.97 6.47-2.96 4.53-9.36"/></g></svg>