<svg xmlns="http://www.w3.org/2000/svg" fill="#444444" height="16" width="29.33"><defs><clipPath id="a" clipPathUnits="userSpaceOnUse"><path d="M0 12h22V0H0z"/></clipPath></defs><g clip-path="url(#a)" transform="matrix(1.33333 0 0 -1.33333 0 16)"><path d="M13.66 3.69c.66 0 1.23-.6 1.84-1.24.37-.38.74-.77 1.1-1 .53-.33.96-.31 1.03-.3h.07l2.79.04c.13 0 .3.05.4.1a9.81 9.81 0 01-2.04 2.2c-.88.73-1.33 1.11-1.38 1.7-.04.62.37 1.1 1.18 2.06l.71.85c1.15 1.39 1.44 2 1.51 2.25-.12.02-.47.02-.5.01l-3.2-.02c-.13 0-.18-.02-.18-.03-.13-.31-.6-1.37-1.2-2.32-1.4-2.15-2.04-2.43-2.5-2.44a.8.8 0 00-.42.12c-.73.43-.7 1.4-.68 2.1v.32c0 .5.02.92.04 1.3.06 1.27.01 1.28-.28 1.34-.3.07-.51.12-1.36.12h-.5c-.46 0-1 0-1.4-.07l.19-.19c.43-.53.44-1.48.44-1.67.1-1.25.04-2.89-.75-3.28a.97.97 0 00-.44-.1c-.68 0-1.36.67-2.51 2.48A17.56 17.56 0 004.4 10.3a.83.83 0 01-.23.09l-2.94-.02h-.05c.44-.9 2.51-5.02 4.78-7.18 2.01-1.9 4.27-2 4.7-2h1.37l.2.08c-.02-.01-.01.04-.01.07 0 .2 0 1.98 1.15 2.32.1.02.2.04.3.04M17.54 0c-.28 0-.85.06-1.52.48-.47.3-.9.74-1.3 1.17-.33.33-.87.9-1.07.9-.2-.06-.35-.7-.35-1.2 0-.09 0-.59-.34-.92-.31-.3-.8-.37-.9-.38h-1.4c-.71 0-3.2.16-5.45 2.3C2.52 4.9.2 9.8.1 10c-.14.35-.18.81.11 1.13.29.31.8.36 1 .36l3 .02h.08c.06-.02.41-.08.7-.27.28-.19.43-.5.46-.56 0-.01.47-1.09 1.08-2.04.96-1.52 1.39-1.87 1.54-1.95.14.32.2 1.3.14 2.18 0 .38-.08.84-.19.98-.08.1-.31.2-.57.22l-.53.53c-.07.5.47.93.85 1.1.54.24 1.3.29 2.3.29h.52a6.5 6.5 0 001.58-.15c1.25-.27 1.2-1.32 1.15-2.52a26.23 26.23 0 01-.04-1.6c-.01-.29-.03-.8.06-1 .17.12.63.51 1.52 1.9.58.88 1.03 1.93 1.12 2.13.13.33.44.72 1.18.72l3.13.02.28.01c.72 0 1.17-.22 1.34-.65.2-.5.13-1.26-1.72-3.5l-.72-.86c-.44-.52-.9-1.05-.91-1.22.04-.13.49-.5.92-.87a10.77 10.77 0 002.22-2.34c.39-.58.32-1.01.2-1.28-.32-.65-1.21-.74-1.38-.75L17.75.01l-.2-.01"/></g></svg>