<svg xmlns="http://www.w3.org/2000/svg" height="25.33" width="13.33"><defs><clipPath id="a" clipPathUnits="userSpaceOnUse"><path d="M0 19h10V0H0z"/></clipPath></defs><g clip-path="url(#a)" transform="matrix(1.33333 0 0 -1.33333 0 25.33)"><path d="M3.12 1.03h2.82v8.83h2.93v2.31H5.94v.5c-.04 1.4 0 2.6.74 3.06l.14.09h2.07v2.15h-2.4c-1.15-.06-2-.4-2.58-1.02-.77-.84-1.04-2.26-.8-4.2l.06-.58H1.11v-2.3h2zM7.05 0H2.01v8.84H0v4.36h1.95c-.15 1.98.22 3.42 1.12 4.41.77.84 1.9 1.31 3.4 1.39H10v-4.21H7.22a4.09 4.09 0 01-.18-1.59h2.94V8.83H7.05z"/></g></svg>