<svg xmlns="http://www.w3.org/2000/svg" height="682.67" width="490.14"><defs><clipPath id="a" clipPathUnits="userSpaceOnUse"><path d="M0 512h367.6V0H0z"/></clipPath></defs><g clip-path="url(#a)" transform="matrix(1.33333 0 0 -1.33333 0 682.67)"><path d="M79.59 512h2c3.57-1.86 5.71-4.98 7.54-8.42a83.1 83.1 0 006.92-18.17c1.12-4.28 3.43-6.32 7.78-7.08 12.27-2.12 21.22-9.12 27.46-19.75 3.9-6.63 6.93-13.66 9.7-20.82 7.49-19.44 13.22-39.49 20.2-59.1 3.34-9.36 3.48-9.24 13.49-9.34 11.9-.11 11.06 1.86 11.24-11.32.06-4.19-1.26-6.3-5.67-6.08-1.37.06-3.42.69-3.94-1.14-.43-1.52 1.26-2.58 2.27-3.64 6.26-6.63 14.1-10.5 22.78-12.85 9.96-2.69 20.12-4.8 29.89-8.09 24.9-8.4 47.98-20.12 65.92-39.97 10.95-12.12 18.48-26.49 24.88-41.4 19.5-45.4 28.64-93.46 35.91-141.97 3.41-22.73 5.8-45.58 7.67-68.47.92-11.44 2.13-22.88 1.96-34.39h-175c-.62 2.44.39 4.61 1.21 6.76 3.56 9.26 10.87 14.08 20.1 16.22 3.64.84 4.1 1.94 1.84 4.83-3.84 4.9-6.37 10.53-8.35 16.39-8.58 25.37-11.89 51.84-16.02 78.11-3.16 20.06-7.88 39.46-18.26 57.16-7.68 13.08-17.31 24.41-29.39 33.63-4.36 3.33-4.5 3.33-5.24-2.33-.5-3.78-.63-7.61-.87-11.43a490.9 490.9 0 01.91-74.8c1.78-19.42 2.5-38.81.8-58.3C137.38 43.8 133.27 21.78 127.6 0h-70c1.7 11.58 11.05 21.25 22.27 23.44 6.74 1.32 13.27.43 19.78-1.07 3.14-.72 4.46-.15 4.72 3.43 2.08 28.07.66 55.97-5.05 83.5-6.59 31.8-12.8 63.67-16.1 95.98-1.36 13.42-5.43 25.47-11.94 37.1C65 253.55 59.54 265.2 53.4 276.44c-4.88 8.91-5.8 17.93-2.18 27.39 1.43 3.73 2.78 7.51 4.53 11.1 5.02 10.33 10.35 20.52 15.3 30.89 2.56 5.36 2.03 5.93-3.73 6.05-8.56.19-8.56.19-8.7 8.68-.02 1.16.03 2.33 0 3.5-.07 3.63 1.35 5.64 5.34 5.34 2.65-.2 5.33 0 8-.05 3.63-.07 4.67 1.52 3.78 5.04-3.04 12.03-14.6 21.9-26.97 23.41-11.76 1.44-23.25-.23-34.72-2.27-3.4-.61-5.29.14-6.57 3.37-2.1 5.27-4.45 10.42-6.77 15.59-.97 2.16-1.05 4.05.49 6.04 16.69 21.67 34.87 41.7 59.71 54.4 2.6 1.33 4.05 3.03 4.66 5.94 1.58 7.5 3.42 14.94 6.66 21.95 1.7 3.68 3.66 7.12 7.37 9.18"/></g></svg>