<svg xmlns="http://www.w3.org/2000/svg" viewBox="0 0 230 77" width="173" height="58" preserveAspectRatio="xMidYMid meet"><defs><clipPath id="a" clipPathUnits="userSpaceOnUse"><path d="M0 57.07h172.26V0H0z"/></clipPath></defs><g clip-path="url(#a)" transform="matrix(1.33333 0 0 -1.33333 0 76.1)"><path d="M58.15 31.56c-.43-.43-1.34-.72-1.49.58-.14 1.3-.19 2.2-.19 2.2s-1.92 3.41-2.64 3.46c-.72.05-5.8-3.45-7.15-4.94-1.15-1.29-1.39-1.2-1.39-3.46 0-1.7.22-8.13.1-13.05l-8.1-2.16c-5.96-1.58-7.78-1.77-7.78-1.77l-1 5.8h-.01l-.04.01h-.04l-.05.01-2.56 13.13s-3.79 1.44-5.18 1.82c-1.39.39-2.25.68-4.03-.62-1.77-1.3-1.73-3.84-1.73-3.84s.44-.96.48-1.44c.05-.48-1.2-.43-2.01-.43-.82 0-.91 1.44-.29 3.12.62 1.68 1.92 3.7 1.92 3.7s1.2 2.25 2.06 2.87c0 0 .15.34 1.25.24 1.1-.1 7.25-.43 7.25-.43l.05 2.27c6.66.9 13.43 1.36 20.16 1.33-.02-.61-.03-1.22-.06-1.82 0 0 4.36 2.01 8.1 1.96 0 0 .44.05.77-.38.34-.43 2.4-2.98 2.64-3.36.24-.38 1.2-1.73 1.83-3.02 0 0-.44-1.35-.87-1.78m1.47 3.77A25.5 25.5 0 1132.37.28c-.58 2.08-1.16 4.38-1.69 6.82 1.5-.98 3.08-1.8 4.75-2.54l-.02-.01s.12-2.15.28-4.55c1.76-.03 3.55.13 5.32.48-.04.16-.04.4.01.76.29 1.85 1.1 5.21 1.25 7.37a15.21 15.21 0 012.88 3.7v-.04l-.05-.43c-.56-4.24-1.7-8.77-2.4-10.03a5.76 5.76 0 00-.82-1.14 25.53 25.53 0 0117.74 34.66" fill="#fdc305"/><path d="M56.21 37.64c.47-.6.88-1.12.98-1.28.24-.38 1.2-1.73 1.83-3.02 0 0-.44-1.35-.87-1.78-.43-.43-1.34-.72-1.48.58-.15 1.3-.2 2.2-.2 2.2s-1.92 3.41-2.64 3.46c-.72.05-5.8-3.46-7.14-4.94-1.16-1.29-1.4-1.2-1.4-3.46 0-1.5.17-6.62.13-11.17 1.8-.21 4.45-.71 5.25-1.88 0 0-.3 7.15 7.77 3.4 0 0 .29 9.75 11.42 7.25 0 0-5.64 6.93-13.65 10.64M45.74 39.96a90.14 90.14 0 01-1.4 16.46s-.15 1.3-.87.24-1.2-3.94-1.2-3.94c-7.44.43-12.76-.33-12.76-.33-.82 2.73-2.2 3.93-2.88 3.64-.67-.29-.72-3.3-.72-3.3l-.33-14.1c6.66.9 13.43 1.36 20.16 1.33" fill="#f06351"/><path d="M45.15 12.31c.13 1.06.2 2.48.24 4.04l-8.1-2.16c-5.96-1.58-7.78-1.77-7.78-1.77l1.1-5a31 31 0 01.07-.32c1.5-.98 3.08-1.8 4.75-2.54 4.35 2.15 6.84 4.12 6.84 4.12V8.6a15.2 15.2 0 012.88 3.7" fill="#e55645"/><path d="M31.86 43.08c-.05.09 1.02-.68 1.4-.92.39-.24.61-.43.61-.6 0-.16-.26-.33-.62-.33s-.91.12-.96.26c0 0 .6.03.94.03h.28s-1.39 1.03-1.65 1.56M39.33 42.96l-1.09-1.33c-.04-.06-.16-.34.19-.3a8 8 0 011.22.3c.1.05.07.19-.12.17-.2-.02-.68-.05-.98-.1l.84 1.25s.02.12-.06.01M36.2 36.88s.8.35 1.09 1c.28.66.03.92-.44.98-.48.07-1.34.03-1.74-.34-.4-.37-.34-.73-.05-.95a5 5 0 011.14-.7"/><path d="M35.8 35.63s-.19-.38-.46-.6c-.25-.2-.57-.36-1.02-.38a2.15 2.15 0 00-1.45.44c-.2.14-.4.25-.53.44a.95.95 0 01-.36.25s.75-4.1 2.56-4.74c1.82-.65 2.15.75 2.2 1.13.05.33 0 2.08-.82 3.22-.01.3-.03.1-.13.24" fill="#f06351"/><path d="M34.15 34.5h-.01c-1.3 0-2.3 1.35-2.33 1.41a.14.14 0 00.23.17c0-.01.95-1.29 2.1-1.3h.01c.59 0 1.13.33 1.63.99l.14.19.1-.21c0-.01.38-.76 1-.8.49-.03 1.05.41 1.6 1.28.05.07.14.09.2.04a.14.14 0 00.05-.2c-.63-.97-1.26-1.44-1.88-1.4-.56.03-.94.49-1.11.76-.52-.62-1.1-.94-1.73-.94"/><path d="M33.7 24.05l4.11 5.38-.8-4 1.96.82-4.12-5.39.8 4zm7.35 3.8l-3.12-1.3 1.15 5.61-7.47-9.72 3.12 1.3-1.14-5.6z" fill="#111"/><path d="M45.68 38.15s-2.55-2.24-5.06-5.18a31.65 31.65 0 00-5.3-4.88c-.21.53-1.61 1.5-1.61 1.5s-3.13 2.15-5.19 3.83a33 33 0 00-3.12 3.01l-2 .11a22.54 22.54 0 0111.96-8.8c.87.14 3.28 1.86 5.08 3.26a57.5 57.5 0 015.93 5.9c.6.68.95 1.41 1.14 1.96-1.11-.38-1.83-.7-1.83-.7M25.81 31.37s-3.79 1.44-5.18 1.82c-1.39.39-2.25.68-4.03-.62-1.77-1.3-1.73-3.84-1.73-3.84s.44-.96.48-1.44c.05-.48-1.2-.43-2.01-.43-.82 0-.91 1.44-.29 3.12.62 1.68 1.92 3.7 1.92 3.7C9.55 30.83 0 24.31 0 24.31s2.93.28 8.16-.24c5.23-.53 4.94-4.66 4.94-4.66s3.5.96 5.61 1.1c2.11.15 2.26-2.1 2.26-2.1l.53-3.84s.48.62 2.63 2.35a6.04 6.04 0 004.37 1.3z" fill="#f06351"/><path d="M89.56 19.95c-.66.85-1 2.08-1 3.69v5.34c0 1.64.33 2.88.99 3.72.66.84 1.78 1.26 3.38 1.26 1.52 0 2.6-.37 3.23-1.1.63-.75.94-1.82.94-3.2V28.4h-2.94v1.38c0 .44-.02.8-.06 1.06-.05.27-.16.5-.34.68-.17.17-.45.26-.82.26-.55 0-.9-.18-1.06-.53a3.97 3.97 0 01-.24-1.57v-6.77c0-.7.1-1.22.27-1.56.19-.35.53-.52 1.03-.52.52 0 .85.18 1 .53.15.35.22.86.22 1.55v1.46h2.94v-1.24c0-1.42-.3-2.52-.93-3.3-.63-.78-1.71-1.17-3.24-1.17-1.59 0-2.7.43-3.37 1.28M103.71 24.03l-.9 6-.88-6zm-2.6 9.75h3.37l2.87-14.9h-2.8l-.55 3.27h-2.35l-.57-3.28h-2.85zM109.5 31.53h-2.3v2.25h7.63v-2.25h-2.27V18.87h-3.05z" fill="#111"/><path d="M120.8 33.78h5.79v-1.55h-3.7V27.3h3v-1.47h-3v-5.47h3.73v-1.49h-5.81zM128.3 33.78h1.42l4.23-9.9v9.9h1.73v-14.9h-1.33l-4.29 10.17V18.87h-1.76zM138.01 33.78h5.78v-1.55h-3.7V27.3h3v-1.47h-3v-5.47h3.74v-1.49h-5.82zM148.38 27.36c.9 0 1.53.17 1.92.53.38.36.58 1 .58 1.93 0 .62-.07 1.1-.2 1.45-.14.35-.38.6-.72.77-.35.17-.83.25-1.46.25h-.92v-4.93zm-2.87 6.42h3c1.5 0 2.61-.31 3.32-.93.7-.62 1.05-1.63 1.05-3.03 0-1.91-.6-3.07-1.84-3.48l2.12-7.47h-2l-1.96 7h-1.62v-7h-2.08zM155.68 19.97c-.6.85-.9 2.12-.9 3.8v4.99c0 1.15.12 2.1.36 2.84.24.74.65 1.31 1.23 1.71.58.4 1.39.6 2.4.6 1.38 0 2.37-.35 2.98-1.05.6-.7.9-1.8.9-3.3v-.55h-1.94v.46c0 .71-.05 1.26-.13 1.65a1.4 1.4 0 01-.54.87c-.28.2-.69.3-1.23.3-.58 0-1-.13-1.29-.4a1.84 1.84 0 01-.54-1.05c-.08-.45-.12-1.04-.12-1.77v-5.52c0-1.14.14-1.96.41-2.46.28-.5.81-.74 1.6-.74.77 0 1.3.26 1.59.8.29.55.43 1.41.43 2.6v1.03h-1.9v1.47h3.78v-7.38h-1.3l-.21 1.71c-.47-1.26-1.35-1.9-2.65-1.9-1.35 0-2.33.43-2.93 1.29M167.07 24.14l-3.22 9.64h1.94l2.28-7.2 2.24 7.2h1.95l-3.2-9.64v-5.27h-1.99z" fill="#444"/></g></svg>